# xmcd
#
# Track frame offsets:
#	150
#	36914
#	64414
#	99765
#
# Disc length: 2258 seconds
# Revision: 0
# Processed by: cddbd v1.5.2PL0 Copyright (c) Steve Scherf et al.
# Submitted via: dBpowerAMP V12.0
#
DISCID=2d08d004
DTITLE=BlackStreet - Another Level
DYEAR=1996
DGENRE=R&B
TTITLE0=No Diggity (Jungle Mix)
TTITLE1=Don't Leave (Goodbye Remix)
TTITLE2=Fix (Linslee Mix)
TTITLE3=DATA
EXTD=
EXTT0=
EXTT1=
EXTT2=
EXTT3=
PLAYORDER=
